# xmcd CD database file
#
# Track frame offsets:
#	150
#	61969
#	169463
#	302260
#
# Disc length: 4383 seconds
#
# Revision: 0
# Processed by: cddbd v1.5.2PL0 Copyright (c) Steve Scherf et al.
# Submitted via: CDex 1.51
#
DISCID=2b111d04
DTITLE=T. Tyler Texas - Live 1948-1950
DYEAR=1900
DGENRE=Country
TTITLE0=Melody Roundup #1640,Los Angeles, CA 1948
TTITLE1=NBC Radio Broadcast 11 Jan 1950 Riverside Rancho Los Angeles, CA
TTITLE2=AFRS W-45. c. early 1950 Riverside Rancho Los Angeles, CA
TTITLE3=Excerpt From Melody Roundup #1959. Wade Ray with T. Tyler Texas. c. 1949 Cowtown, Los Angeles
EXTD=
EXTT0=
EXTT1=
EXTT2=
EXTT3=
PLAYORDER=
